<svg width="25" height="25" viewBox="0 0 25 25" fill="none" xmlns="http://www.w3.org/2000/svg">
<g clip-path="url(#clip0_686_436)">
<path d="M8.36189 19.4043C8.36189 19.502 8.24597 19.5801 8.0998 19.5801C7.93347 19.5947 7.81754 19.5166 7.81754 19.4043C7.81754 19.3066 7.93347 19.2285 8.07964 19.2285C8.23085 19.2139 8.36189 19.292 8.36189 19.4043ZM6.79435 19.1846C6.75907 19.2822 6.85988 19.3945 7.01109 19.4238C7.14214 19.4727 7.29335 19.4238 7.32359 19.3262C7.35383 19.2285 7.25806 19.1162 7.10685 19.0723C6.97581 19.0381 6.82964 19.0869 6.79435 19.1846ZM9.02218 19.1016C8.87601 19.1357 8.7752 19.2285 8.79032 19.3408C8.80544 19.4385 8.93649 19.502 9.0877 19.4678C9.23387 19.4336 9.33468 19.3408 9.31956 19.2432C9.30443 19.1504 9.16835 19.0869 9.02218 19.1016ZM12.3387 0.390625C5.34778 0.390625 0 5.53223 0 12.3047C0 17.7197 3.51815 22.3535 8.54335 23.9844C9.18851 24.0967 9.41532 23.7109 9.41532 23.3936C9.41532 23.0908 9.4002 21.4209 9.4002 20.3955C9.4002 20.3955 5.87198 21.1279 5.13105 18.9404C5.13105 18.9404 4.55645 17.5195 3.72984 17.1533C3.72984 17.1533 2.5756 16.3867 3.81048 16.4014C3.81048 16.4014 5.06552 16.499 5.75605 17.6611C6.85988 19.5459 8.70968 19.0039 9.43044 18.6816C9.54637 17.9004 9.87399 17.3584 10.2369 17.0361C7.41935 16.7334 4.57661 16.3379 4.57661 11.6406C4.57661 10.2979 4.95968 9.62402 5.76613 8.76465C5.63508 8.44727 5.20665 7.13867 5.89718 5.44922C6.9506 5.13184 9.375 6.76758 9.375 6.76758C10.3831 6.49414 11.4667 6.35254 12.5403 6.35254C13.6139 6.35254 14.6976 6.49414 15.7056 6.76758C15.7056 6.76758 18.13 5.12695 19.1835 5.44922C19.874 7.14355 19.4456 8.44727 19.3145 8.76465C20.121 9.62891 20.6149 10.3027 20.6149 11.6406C20.6149 16.3525 17.6462 16.7285 14.8286 17.0361C15.2923 17.4219 15.6855 18.1543 15.6855 19.3018C15.6855 20.9473 15.6704 22.9834 15.6704 23.3838C15.6704 23.7012 15.9022 24.0869 16.5423 23.9746C21.5827 22.3535 25 17.7197 25 12.3047C25 5.53223 19.3296 0.390625 12.3387 0.390625ZM4.89919 17.2314C4.83367 17.2803 4.84879 17.3926 4.93448 17.4854C5.01512 17.5635 5.13105 17.5977 5.19657 17.5342C5.2621 17.4854 5.24698 17.373 5.16129 17.2803C5.08065 17.2021 4.96472 17.168 4.89919 17.2314ZM4.35484 16.8359C4.31956 16.8994 4.36996 16.9775 4.47077 17.0264C4.55141 17.0752 4.65222 17.0605 4.6875 16.9922C4.72278 16.9287 4.67238 16.8506 4.57157 16.8018C4.47077 16.7725 4.39012 16.7871 4.35484 16.8359ZM5.9879 18.5742C5.90726 18.6377 5.9375 18.7842 6.05343 18.877C6.16935 18.9893 6.31552 19.0039 6.38105 18.9258C6.44657 18.8623 6.41633 18.7158 6.31552 18.623C6.20464 18.5107 6.05343 18.4961 5.9879 18.5742ZM5.41331 17.8564C5.33266 17.9053 5.33266 18.0322 5.41331 18.1445C5.49395 18.2568 5.63004 18.3057 5.69556 18.2568C5.77621 18.1934 5.77621 18.0664 5.69556 17.9541C5.625 17.8418 5.49395 17.793 5.41331 17.8564Z" fill="#888888"/>
</g>
<defs>
<clipPath id="clip0_686_436">
<rect width="25" height="25" fill="white"/>
</clipPath>
</defs>
</svg>
